<?xml version="1.0" standalone="no"?>
<!DOCTYPE svg PUBLIC "-//W3C//DTD SVG 20010904//EN"
 "http://www.w3.org/TR/2001/REC-SVG-20010904/DTD/svg10.dtd">
<svg version="1.0" xmlns="http://www.w3.org/2000/svg"
 width="666.000000pt" height="375.000000pt" viewBox="0 0 666.000000 375.000000"
 preserveAspectRatio="xMidYMid meet">

<g transform="translate(0.000000,375.000000) scale(0.100000,-0.100000)"
fill="#000000" stroke="none">
<path d="M798 1543 c-17 -4 -18 -26 -18 -279 l0 -275 48 3 47 3 5 132 c4 118
7 134 27 157 16 18 33 26 55 26 61 0 63 -5 68 -167 l5 -148 45 0 45 0 3 115
c6 217 -12 267 -100 277 -51 6 -113 -11 -122 -32 -3 -8 -10 -15 -16 -15 -6 0
-10 38 -10 99 0 113 -8 124 -82 104z"/>
<path d="M1247 1532 c-10 -10 -17 -32 -17 -49 0 -25 5 -33 28 -40 41 -13 72
-5 83 23 22 60 -52 112 -94 66z"/>
<path d="M1877 1532 c-21 -23 -22 -66 -2 -82 22 -18 77 -15 92 6 18 25 16 47
-7 72 -25 27 -61 28 -83 4z"/>
<path d="M4233 1530 c-41 -25 -53 -48 -53 -104 0 -42 -2 -46 -25 -46 -22 0
-25 -4 -25 -35 0 -31 3 -35 25 -35 l25 0 0 -161 0 -160 48 3 47 3 3 158 3 157
54 0 55 0 0 35 0 35 -55 0 -55 0 0 33 c0 18 5 38 12 45 14 14 57 16 78 2 11
-7 18 -3 27 13 30 54 6 77 -79 77 -35 0 -64 -7 -85 -20z"/>
<path d="M3101 1513 c-29 -6 -90 -43 -113 -69 -37 -42 -58 -107 -58 -186 0
-171 86 -268 240 -268 96 0 155 31 191 102 l19 37 -34 20 c-44 28 -50 27 -68
-13 -12 -25 -29 -38 -63 -52 -45 -17 -48 -17 -92 2 -36 15 -52 29 -70 63 -38
72 -27 192 23 246 51 56 184 39 206 -26 4 -11 10 -11 36 0 48 20 57 36 38 66
-32 48 -87 76 -162 80 -38 2 -80 1 -93 -2z"/>
<path d="M310 1470 l0 -40 75 0 75 0 0 -220 0 -220 50 0 50 0 2 218 3 217 73
3 72 3 0 39 0 40 -200 0 -200 0 0 -40z"/>
<path d="M4505 1471 c-26 -5 -31 -11 -35 -46 -4 -35 -9 -40 -32 -43 -24 -3
-28 -8 -28 -37 0 -29 4 -34 28 -37 l27 -3 5 -120 c7 -164 28 -195 130 -195 75
0 94 14 79 58 -11 32 -13 33 -49 27 -58 -10 -72 17 -68 136 l3 94 54 5 c53 5
55 6 58 37 l4 32 -58 3 -58 3 -3 48 c-3 49 -4 50 -57 38z"/>
<path d="M2779 1412 c-9 -27 -11 -28 -88 -27 -65 0 -84 -4 -108 -21 -57 -43
-65 -144 -14 -192 15 -14 21 -27 15 -29 -6 -2 -19 -10 -29 -17 -22 -16 -23
-76 -1 -92 22 -16 20 -20 -14 -34 -31 -13 -47 -46 -41 -85 4 -30 37 -61 80
-74 49 -14 158 -14 202 0 72 25 110 90 89 153 -19 58 -40 69 -140 74 -92 5
-118 16 -106 47 4 11 21 15 63 15 110 0 166 70 137 170 -12 41 -12 45 12 72
30 37 30 46 -2 58 -38 15 -44 13 -55 -18z m-40 -126 c12 -26 12 -33 0 -55 -20
-36 -80 -42 -103 -9 -9 12 -16 29 -16 38 0 9 7 26 16 38 24 35 84 28 103 -12z
m22 -306 c10 -6 19 -19 19 -30 0 -30 -39 -50 -95 -50 -76 0 -120 41 -83 78 15
15 132 16 159 2z"/>
<path d="M2232 1375 c-18 -8 -35 -21 -38 -30 -9 -24 -24 -18 -24 10 0 23 -4
25 -45 25 l-45 0 0 -196 0 -195 48 3 47 3 5 130 c5 130 14 167 46 179 32 12
71 6 90 -15 17 -19 19 -37 19 -158 l0 -136 48 -3 47 -3 0 149 c0 176 -11 215
-65 238 -43 18 -90 17 -133 -1z"/>
<path d="M3612 1383 c-12 -3 -28 -13 -35 -24 -15 -25 -27 -24 -27 1 0 17 -7
20 -50 20 l-50 0 0 -196 0 -195 48 3 47 3 5 127 c5 117 7 128 30 153 20 21 32
26 65 23 40 -3 40 -3 43 36 4 52 -10 61 -76 49z"/>
<path d="M3825 1377 c-16 -6 -42 -20 -57 -30 -23 -16 -25 -21 -15 -40 26 -48
26 -48 65 -22 54 37 142 33 142 -6 0 -23 -33 -45 -84 -54 -124 -21 -175 -90
-131 -175 23 -44 53 -60 111 -60 41 0 59 5 81 24 l28 24 28 -24 c28 -24 80
-32 103 -16 7 4 9 21 7 40 -4 23 -11 32 -24 32 -24 0 -28 19 -31 152 -3 101
-5 109 -29 134 -23 23 -37 27 -95 30 -40 2 -81 -1 -99 -9z m114 -293 c-40 -42
-109 -26 -109 26 0 33 31 60 70 60 14 0 32 5 40 10 12 8 16 2 18 -31 3 -32 -2
-47 -19 -65z"/>
<path d="M4903 1376 c-18 -8 -33 -20 -33 -26 0 -5 -4 -10 -10 -10 -5 0 -10 9
-10 20 0 17 -7 20 -45 20 l-45 0 0 -195 0 -195 45 0 45 0 0 103 c1 116 13 185
38 203 22 17 78 18 89 2 4 -7 10 -78 13 -158 l5 -145 45 0 45 0 5 130 c5 139
15 171 54 181 71 18 86 -13 86 -183 l0 -133 45 0 45 0 0 168 c-1 162 -1 168
-25 197 -23 28 -30 30 -89 30 -58 0 -68 -3 -95 -29 l-30 -29 -23 28 c-30 34
-104 44 -155 21z"/>
<path d="M5520 1377 c-79 -28 -124 -138 -100 -250 18 -90 82 -137 187 -137 65
0 116 21 143 60 l20 28 -32 20 -32 20 -29 -24 c-31 -26 -83 -32 -118 -14 -19
10 -49 59 -49 80 0 6 46 10 131 10 l131 0 -4 64 c-7 107 -62 157 -173 155 -22
0 -56 -5 -75 -12z m138 -79 c7 -7 12 -25 12 -40 l0 -28 -75 0 c-65 0 -75 2
-75 18 0 10 7 28 16 40 12 17 25 22 63 22 26 0 52 -5 59 -12z"/>
<path d="M6015 1378 c-11 -6 -30 -20 -42 -31 l-23 -20 0 26 c0 25 -3 27 -45
27 l-45 0 0 -195 0 -195 45 0 45 0 0 104 c0 57 3 117 6 135 10 47 46 81 87 81
55 0 61 -16 67 -174 l5 -141 45 0 45 0 3 140 c3 169 -10 218 -64 241 -40 17
-101 18 -129 2z"/>
<path d="M1240 1185 l0 -195 45 0 45 0 0 195 0 195 -45 0 -45 0 0 -195z"/>
<path d="M1427 1313 c14 -38 31 -86 38 -108 7 -22 29 -78 48 -125 l34 -85 58
0 58 0 17 50 c10 28 34 95 55 150 20 55 41 111 45 125 4 14 11 33 15 43 6 15
1 17 -43 17 l-50 0 -18 -52 c-45 -139 -77 -219 -85 -211 -8 8 -43 100 -58 158
-5 17 -16 47 -25 68 -16 36 -18 37 -66 37 l-49 0 26 -67z"/>
<path d="M1872 1188 l3 -193 43 -3 c49 -4 44 -24 44 188 0 66 -1 138 -1 160
l-1 40 -45 0 -45 0 2 -192z"/>
<path d="M1766 734 c-8 -21 11 -44 35 -44 19 0 35 33 24 50 -10 16 -52 12 -59
-6z"/>
<path d="M2374 735 c-9 -23 3 -45 24 -45 25 0 44 23 36 44 -8 20 -53 21 -60 1z"/>
<path d="M3350 700 c0 -27 -2 -50 -4 -50 -3 0 -16 4 -31 10 -33 13 -88 -9
-105 -41 -7 -13 -10 -46 -8 -82 4 -48 9 -63 29 -78 27 -21 89 -25 107 -7 9 9
12 9 12 0 0 -7 13 -12 30 -12 l30 0 0 155 0 155 -30 0 c-29 0 -30 -1 -30 -50z
m-16 -96 c9 -9 16 -32 16 -54 0 -67 -63 -91 -89 -34 -15 34 -14 55 5 82 18 26
46 28 68 6z"/>
<path d="M5004 736 c-10 -26 4 -48 28 -44 17 2 23 10 23 28 0 18 -6 26 -23 28
-13 2 -25 -3 -28 -12z"/>
<path d="M5136 728 c-9 -12 -16 -33 -16 -45 0 -14 -6 -23 -15 -23 -8 0 -15 -9
-15 -20 0 -11 7 -20 15 -20 11 0 15 -19 17 -87 3 -87 3 -88 30 -91 l27 -3 3
88 3 88 33 3 c24 2 32 8 32 23 0 15 -7 19 -36 19 -31 0 -35 3 -32 23 2 17 10
22 33 22 23 1 31 6 33 23 3 20 -1 22 -47 22 -40 0 -53 -4 -65 -22z"/>
<path d="M1320 585 l0 -145 84 0 c107 0 136 18 136 85 0 34 -5 48 -24 63 -23
17 -23 20 -9 35 23 23 19 68 -7 89 -17 14 -40 18 -101 18 l-79 0 0 -145z m138
96 c8 -4 12 -19 10 -32 -3 -21 -9 -24 -50 -27 l-48 -3 0 35 c0 35 1 36 38 36
20 0 43 -4 50 -9z m-5 -110 c9 0 22 -12 29 -26 17 -37 -4 -55 -63 -55 l-49 0
0 38 c0 46 4 52 38 47 15 -1 35 -3 45 -4z"/>
<path d="M3080 585 l0 -145 30 0 30 0 0 145 0 145 -30 0 -30 0 0 -145z"/>
<path d="M4770 585 l0 -145 95 0 c95 0 95 0 95 25 0 24 -2 25 -65 25 l-65 0 0
120 0 120 -30 0 -30 0 0 -145z"/>
<path d="M4250 685 c0 -18 -5 -25 -20 -25 -13 0 -20 -7 -20 -20 0 -13 7 -20
20 -20 18 0 20 -7 20 -68 0 -89 15 -112 74 -112 23 0 46 3 49 6 13 13 -14 44
-38 44 -24 0 -25 3 -25 65 l0 65 30 0 c23 0 30 4 30 20 0 16 -7 20 -30 20 -25
0 -30 4 -30 25 0 21 -5 25 -30 25 -25 0 -30 -4 -30 -25z"/>
<path d="M2276 674 c-4 -11 -13 -14 -30 -10 -14 3 -37 1 -52 -4 -52 -20 -68
-66 -38 -108 15 -21 15 -25 -1 -42 -15 -16 -16 -22 -5 -35 11 -13 10 -19 -8
-36 -48 -44 -6 -89 83 -89 82 0 126 40 105 96 -9 23 -17 27 -93 42 -50 9 -48
26 4 33 54 7 72 31 64 83 -4 26 -2 42 6 47 15 9 4 39 -15 39 -7 0 -17 -7 -20
-16z m-16 -84 c0 -29 -35 -44 -54 -24 -9 8 -16 19 -16 24 0 5 7 16 16 24 19
20 54 5 54 -24z m15 -160 c11 -18 -16 -40 -50 -40 -34 0 -61 22 -50 40 3 5 26
10 50 10 24 0 47 -5 50 -10z"/>
<path d="M2887 676 c-4 -10 -19 -14 -45 -13 -56 2 -92 -24 -92 -68 0 -18 8
-41 17 -50 16 -16 16 -18 0 -27 -19 -10 -22 -39 -6 -55 8 -8 6 -13 -9 -17 -27
-9 -34 -42 -13 -67 18 -23 91 -36 136 -25 55 14 84 76 51 109 -8 8 -40 18 -71
22 -65 8 -70 27 -10 35 52 7 84 48 68 89 -8 23 -8 32 4 44 17 16 10 37 -12 37
-7 0 -15 -7 -18 -14z m-43 -52 c19 -7 22 -60 4 -67 -35 -12 -63 34 -36 61 14
14 12 14 32 6z m41 -194 c11 -18 -16 -40 -49 -40 -40 0 -61 14 -53 34 7 18 91
23 102 6z"/>
<path d="M1990 663 c-8 -3 -23 -12 -32 -21 -16 -14 -18 -13 -18 1 0 11 -8 17
-25 17 l-25 0 0 -110 0 -110 25 0 c24 0 25 2 25 68 0 72 17 112 49 112 32 0
41 -22 41 -103 l0 -78 28 3 c26 3 27 5 30 68 5 91 -10 135 -50 149 -17 6 -31
11 -32 10 -1 0 -8 -3 -16 -6z"/>
<path d="M2580 654 c-22 -10 -36 -11 -38 -4 -2 5 -15 10 -28 10 -24 0 -24 0
-24 -110 l0 -110 30 0 30 0 0 80 c0 70 2 81 20 90 28 15 56 4 64 -23 3 -12 6
-50 6 -84 0 -61 1 -63 26 -63 l26 0 -4 95 c-3 98 -11 117 -53 128 -11 4 -36
-1 -55 -9z"/>
<path d="M3523 655 c-74 -32 -85 -144 -19 -197 33 -27 107 -24 135 5 19 21 20
25 6 37 -12 10 -19 9 -40 -4 -32 -21 -48 -20 -68 2 -31 34 -21 42 53 42 70 0
70 0 70 28 0 41 -9 67 -28 79 -32 19 -76 23 -109 8z m75 -47 c21 -21 13 -28
-33 -28 -25 0 -45 4 -45 8 0 15 24 32 45 32 12 0 26 -5 33 -12z"/>
<path d="M3755 658 c-47 -17 -56 -27 -43 -48 11 -16 14 -17 32 -4 22 15 72 19
80 6 10 -16 -10 -31 -54 -41 -72 -16 -98 -63 -61 -108 23 -27 82 -31 101 -8
12 14 15 14 30 0 23 -21 60 -20 60 3 0 10 -5 23 -11 29 -10 10 -17 61 -18 126
-1 22 -8 31 -36 43 -39 16 -40 16 -80 2z m75 -130 c0 -18 -32 -48 -50 -48 -41
0 -33 57 8 62 32 4 42 1 42 -14z"/>
<path d="M3974 656 c-17 -8 -34 -21 -38 -31 -17 -46 1 -73 63 -90 39 -12 53
-41 25 -52 -10 -3 -30 1 -47 10 -32 19 -47 15 -47 -13 0 -26 29 -40 83 -40 51
0 87 30 87 72 0 32 -21 50 -74 63 -60 16 -55 40 8 40 50 0 67 13 44 32 -23 19
-72 23 -104 9z"/>
<path d="M4473 659 c-78 -22 -95 -145 -28 -201 31 -26 106 -24 132 5 46 50 53
88 27 143 -24 50 -72 69 -131 53z m71 -55 c9 -9 16 -32 16 -54 0 -31 -5 -43
-25 -56 -29 -19 -48 -14 -69 19 -12 18 -14 31 -6 57 14 51 53 66 84 34z"/>
<path d="M5332 659 c-46 -14 -78 -82 -63 -135 16 -59 47 -84 101 -84 47 0 90
21 90 44 0 22 -28 26 -59 9 -27 -16 -30 -16 -55 0 -48 32 -34 47 43 47 39 0
72 4 75 8 3 5 3 26 -1 46 -9 57 -65 84 -131 65z m78 -59 c10 -19 8 -20 -40
-20 -27 0 -50 2 -50 4 0 3 7 12 16 20 22 22 61 20 74 -4z"/>
<path d="M1600 550 l0 -110 25 0 c24 0 25 2 25 68 0 75 12 99 50 104 36 4 42
48 6 48 -13 0 -32 -7 -40 -16 -15 -14 -16 -14 -16 0 0 10 -9 16 -25 16 l-25 0
0 -110z"/>
<path d="M1770 550 l0 -110 25 0 25 0 0 110 0 110 -25 0 -25 0 0 -110z"/>
<path d="M2372 553 l3 -108 28 -3 27 -3 0 110 0 111 -30 0 -31 0 3 -107z"/>
<path d="M5000 549 l0 -110 28 3 27 3 3 108 3 107 -30 0 -31 0 0 -111z"/>
</g>
</svg>
